<?xml version="1.0" encoding="UTF-8"?>
<svg id="Camada_1" xmlns="http://www.w3.org/2000/svg" version="1.1" xmlns:xlink="http://www.w3.org/1999/xlink" viewBox="0 0 1113.19 383.08">
  <!-- Generator: Adobe Illustrator 29.2.1, SVG Export Plug-In . SVG Version: 2.1.0 Build 116)  -->
  <defs>
    <style>
      .st0 {
        fill: url(#Gradiente_sem_nome_1163);
      }

      .st1 {
        fill: #fff;
      }

      .st2 {
        fill: url(#Gradiente_sem_nome_1162);
      }

      .st3 {
        stroke-width: 1px;
      }

      .st3, .st4 {
        fill: none;
        stroke: #2bc0fb;
        stroke-miterlimit: 10;
      }

      .st5 {
        fill: url(#Gradiente_sem_nome_116);
      }

      .st4 {
        stroke-width: .67px;
      }

      .st6 {
        fill: url(#Gradiente_sem_nome_1161);
      }
    </style>
    <linearGradient id="Gradiente_sem_nome_116" data-name="Gradiente sem nome 116" x1="458.34" y1="225.09" x2="458.34" y2="138.89" gradientUnits="userSpaceOnUse">
      <stop offset="0" stop-color="#a711ff"/>
      <stop offset="1" stop-color="#2bc0fb"/>
    </linearGradient>
    <linearGradient id="Gradiente_sem_nome_1161" data-name="Gradiente sem nome 116" x1="549.48" y1="224.97" x2="549.48" y2="55.05" xlink:href="#Gradiente_sem_nome_116"/>
    <linearGradient id="Gradiente_sem_nome_1162" data-name="Gradiente sem nome 116" x1="556.76" y1="248.17" x2="556.76" y2="6.28" xlink:href="#Gradiente_sem_nome_116"/>
    <linearGradient id="Gradiente_sem_nome_1163" data-name="Gradiente sem nome 116" x1="444.65" y1="248.17" x2="444.65" y2="114.44" xlink:href="#Gradiente_sem_nome_116"/>
  </defs>
  <g>
    <path class="st1" d="M23.69,323.7h22.12c5.55,0,10.47,1.1,14.78,3.3,4.3,2.2,7.64,5.29,10.01,9.26,2.38,3.97,3.56,8.54,3.56,13.69s-1.19,9.71-3.56,13.69c-2.38,3.97-5.71,7.06-10.01,9.26-4.3,2.2-9.23,3.3-14.78,3.3h-22.12v-52.5ZM45.36,369.68c4.25,0,7.99-.83,11.21-2.47,3.22-1.65,5.71-3.96,7.46-6.94s2.62-6.41,2.62-10.31-.88-7.34-2.62-10.31-4.24-5.29-7.46-6.94c-3.23-1.65-6.96-2.48-11.21-2.48h-14.17v39.45h14.17Z"/>
    <path class="st1" d="M161.84,363.08h-27.9l-5.77,13.12h-7.73l23.78-52.5h7.42l23.85,52.5h-7.88l-5.77-13.12ZM159.21,357.08l-11.33-25.73-11.33,25.73h22.65Z"/>
    <path class="st1" d="M234.59,330.23h-18v-6.52h43.42v6.52h-18v45.98h-7.42v-45.98Z"/>
    <path class="st1" d="M342.51,363.08h-27.9l-5.77,13.12h-7.73l23.78-52.5h7.42l23.85,52.5h-7.88l-5.77-13.12ZM339.89,357.08l-11.33-25.73-11.33,25.73h22.65Z"/>
    <path class="st1" d="M480.4,373.31c-4.23-2.32-7.54-5.52-9.94-9.6-2.4-4.07-3.6-8.66-3.6-13.76s1.2-9.69,3.6-13.76c2.4-4.07,5.72-7.27,9.97-9.6,4.25-2.32,9-3.49,14.25-3.49,4.1,0,7.85.69,11.25,2.06,3.4,1.38,6.3,3.41,8.7,6.11l-4.88,4.72c-3.95-4.15-8.88-6.22-14.78-6.22-3.9,0-7.42.88-10.57,2.62-3.15,1.75-5.61,4.16-7.39,7.24-1.78,3.07-2.66,6.51-2.66,10.31s.89,7.24,2.66,10.31c1.77,3.07,4.24,5.49,7.39,7.24,3.15,1.75,6.67,2.62,10.57,2.62,5.85,0,10.77-2.1,14.78-6.3l4.88,4.72c-2.4,2.7-5.31,4.75-8.74,6.15-3.43,1.4-7.19,2.1-11.29,2.1-5.25,0-9.99-1.16-14.21-3.49Z"/>
    <path class="st1" d="M577.11,373.31c-4.25-2.32-7.59-5.54-10.01-9.64-2.43-4.1-3.64-8.67-3.64-13.72s1.21-9.62,3.64-13.73c2.42-4.1,5.76-7.31,10.01-9.64,4.25-2.32,9.02-3.49,14.33-3.49s10,1.16,14.25,3.49c4.25,2.33,7.58,5.53,9.97,9.6,2.4,4.08,3.6,8.66,3.6,13.76s-1.2,9.69-3.6,13.76c-2.4,4.08-5.73,7.28-9.97,9.6-4.25,2.33-9,3.49-14.25,3.49s-10.08-1.16-14.33-3.49ZM601.82,367.5c3.07-1.75,5.5-4.16,7.27-7.24,1.77-3.08,2.66-6.51,2.66-10.31s-.89-7.24-2.66-10.31c-1.78-3.08-4.2-5.49-7.27-7.24-3.08-1.75-6.54-2.62-10.39-2.62s-7.34.88-10.46,2.62c-3.12,1.75-5.58,4.16-7.35,7.24-1.78,3.07-2.66,6.51-2.66,10.31s.89,7.24,2.66,10.31c1.77,3.07,4.22,5.49,7.35,7.24,3.12,1.75,6.61,2.62,10.46,2.62s7.31-.87,10.39-2.62Z"/>
    <path class="st1" d="M719.39,323.7v52.5h-6.15l-31.5-39.15v39.15h-7.5v-52.5h6.15l31.5,39.15v-39.15h7.5Z"/>
    <path class="st1" d="M782.5,374.96c-3.67-1.22-6.56-2.81-8.66-4.76l2.77-5.85c2,1.8,4.56,3.26,7.69,4.39s6.34,1.69,9.64,1.69c4.35,0,7.6-.74,9.75-2.21,2.15-1.47,3.23-3.44,3.23-5.89,0-1.8-.59-3.26-1.76-4.39-1.18-1.12-2.62-1.99-4.35-2.59-1.72-.6-4.16-1.27-7.31-2.02-3.95-.95-7.14-1.9-9.56-2.85-2.43-.95-4.5-2.41-6.22-4.39-1.72-1.97-2.59-4.64-2.59-7.99,0-2.8.74-5.33,2.21-7.58,1.47-2.25,3.71-4.05,6.71-5.4,3-1.35,6.72-2.02,11.17-2.02,3.1,0,6.15.4,9.15,1.2,3,.8,5.58,1.95,7.73,3.45l-2.48,6c-2.2-1.4-4.55-2.46-7.05-3.19-2.5-.72-4.95-1.09-7.35-1.09-4.25,0-7.44.78-9.56,2.33-2.13,1.55-3.19,3.55-3.19,6,0,1.8.6,3.26,1.8,4.39s2.69,2,4.46,2.62c1.77.63,4.19,1.29,7.24,1.99,3.95.95,7.12,1.9,9.52,2.85,2.4.95,4.46,2.4,6.19,4.35,1.73,1.95,2.59,4.58,2.59,7.88,0,2.75-.75,5.26-2.25,7.54-1.5,2.28-3.78,4.08-6.83,5.4-3.05,1.33-6.8,1.99-11.25,1.99-3.95,0-7.76-.61-11.44-1.84Z"/>
    <path class="st1" d="M874.11,370.8c-3.9-4-5.85-9.75-5.85-17.25v-29.85h7.5v29.55c0,11.25,4.92,16.88,14.78,16.88,4.8,0,8.47-1.39,11.02-4.16,2.55-2.78,3.83-7.01,3.83-12.71v-29.55h7.28v29.85c0,7.55-1.95,13.31-5.85,17.29-3.9,3.97-9.35,5.96-16.35,5.96s-12.45-2-16.35-6Z"/>
    <path class="st1" d="M971.53,323.7h7.5v45.97h28.42v6.53h-35.92v-52.5Z"/>
    <path class="st1" d="M1065.13,330.23h-18v-6.52h43.42v6.52h-18v45.98h-7.42v-45.98Z"/>
  </g>
  <g>
    <g>
      <path class="st1" d="M22.37,93.48c-4.34-4.02-6.51-9.01-6.51-14.96s2.17-10.94,6.51-14.96c4.34-4.02,9.97-6.03,16.89-6.03s12.55,1.93,16.89,5.79c4.34,3.86,6.51,8.69,6.51,14.48,0,6.27-2.17,11.46-6.51,15.56s-9.97,6.15-16.89,6.15-12.54-2.01-16.89-6.03ZM20.44,117.6h37.64v129.8H20.44V117.6Z"/>
      <path class="st1" d="M210.91,130.15c9.89,9.65,14.84,23.97,14.84,42.94v74.31h-37.64v-68.52c0-10.29-2.25-17.97-6.76-23.04-4.5-5.07-11.02-7.6-19.54-7.6-9.49,0-17.05,2.94-22.68,8.81-5.63,5.87-8.44,14.6-8.44,26.18v64.17h-37.64V117.6h35.95v15.2c4.98-5.47,11.18-9.69,18.58-12.67,7.4-2.97,15.52-4.46,24.37-4.46,16.08,0,29.07,4.83,38.96,14.48Z"/>
      <path class="st1" d="M271.83,245.35c-10.29-2.65-18.5-5.99-24.61-10.01l12.55-27.02c5.79,3.7,12.79,6.72,20.99,9.05,8.2,2.33,16.24,3.5,24.13,3.5,15.92,0,23.88-3.94,23.88-11.82,0-3.7-2.17-6.35-6.51-7.96-4.34-1.61-11.02-2.97-20.02-4.1-10.62-1.61-19.38-3.46-26.3-5.55-6.92-2.09-12.91-5.79-17.97-11.1s-7.6-12.87-7.6-22.68c0-8.2,2.37-15.48,7.12-21.83,4.74-6.35,11.66-11.3,20.75-14.84,9.08-3.54,19.82-5.31,32.21-5.31,9.17,0,18.29,1.01,27.38,3.02,9.08,2.01,16.61,4.79,22.56,8.32l-12.55,26.78c-11.42-6.43-23.88-9.65-37.39-9.65-8.04,0-14.08,1.13-18.09,3.38-4.02,2.25-6.03,5.15-6.03,8.69,0,4.02,2.17,6.84,6.51,8.44,4.34,1.61,11.26,3.14,20.75,4.58,10.62,1.77,19.3,3.66,26.06,5.67,6.75,2.01,12.62,5.67,17.61,10.98,4.98,5.31,7.48,12.71,7.48,22.2,0,8.04-2.41,15.2-7.24,21.47-4.83,6.27-11.86,11.14-21.11,14.6-9.25,3.46-20.23,5.19-32.93,5.19-10.78,0-21.31-1.33-31.6-3.98Z"/>
    </g>
    <g>
      <path class="st1" d="M809.76,117.6v108.08c0,23.8-6.19,41.5-18.58,53.08-12.39,11.58-30.48,17.37-54.28,17.37-12.55,0-24.45-1.53-35.71-4.58-11.26-3.06-20.59-7.48-27.99-13.27l14.96-27.02c5.47,4.5,12.38,8.08,20.75,10.74,8.36,2.65,16.73,3.98,25.09,3.98,13.03,0,22.64-2.94,28.83-8.81,6.19-5.87,9.29-14.75,9.29-26.66v-5.55c-9.81,10.78-23.49,16.16-41.01,16.16-11.91,0-22.8-2.61-32.69-7.84-9.89-5.22-17.73-12.58-23.52-22.08-5.79-9.49-8.68-20.42-8.68-32.81s2.89-23.32,8.68-32.81c5.79-9.49,13.63-16.85,23.52-22.08,9.89-5.22,20.79-7.84,32.69-7.84,18.82,0,33.13,6.19,42.94,18.58v-16.65h35.71ZM763.07,201.44c6.35-5.87,9.53-13.55,9.53-23.04s-3.18-17.17-9.53-23.04c-6.36-5.87-14.52-8.81-24.49-8.81s-18.18,2.94-24.61,8.81c-6.43,5.87-9.65,13.55-9.65,23.04s3.22,17.17,9.65,23.04c6.43,5.87,14.63,8.81,24.61,8.81s18.13-2.93,24.49-8.81Z"/>
      <path class="st1" d="M962.59,130.15c9.89,9.65,14.84,23.97,14.84,42.94v74.31h-37.64v-68.52c0-10.29-2.25-17.97-6.76-23.04-4.5-5.07-11.02-7.6-19.54-7.6-9.49,0-17.05,2.94-22.68,8.81-5.63,5.87-8.44,14.6-8.44,26.18v64.17h-37.64V68.39h37.64v62.73c4.98-4.98,11.01-8.81,18.09-11.46,7.08-2.65,14.8-3.98,23.16-3.98,16.08,0,29.07,4.83,38.96,14.48Z"/>
      <path class="st1" d="M1095.16,241.13c-3.7,2.74-8.24,4.79-13.63,6.15-5.39,1.36-11.06,2.05-17.01,2.05-15.44,0-27.38-3.94-35.83-11.82-8.44-7.88-12.67-19.46-12.67-34.74v-53.32h-20.02v-28.95h20.02v-31.6h37.64v31.6h32.33v28.95h-32.33v52.84c0,5.47,1.41,9.69,4.22,12.67,2.81,2.98,6.79,4.46,11.94,4.46,5.95,0,11.02-1.61,15.2-4.83l10.13,26.54Z"/>
    </g>
    <g>
      <polygon class="st5" points="468.03 138.89 418.24 224.97 420.17 224.97 420.11 225.09 471.59 225.09 471.66 224.97 479.07 224.97 498.44 191.47 489.41 175.84 469.96 209.46 445.28 209.46 477.07 154.51 468.03 138.89"/>
      <polygon class="st6" points="545.73 108.67 515.62 55.05 515.62 55.05 515.62 55.05 485.36 108.92 493.42 122.74 552.76 224.97 560.17 224.97 611.65 224.97 613.59 224.97 563.8 138.89 554.76 154.51 586.54 209.46 561.86 209.46 503.2 108.41 515.62 85.65 528.17 108.67 528.15 108.67 519.44 123.13 528.47 138.75 536.8 124.48 536.8 124.48 545.87 108.92 545.87 108.92 546.02 108.67 545.73 108.67"/>
      <path class="st2" d="M516.03,6.96l58.9,100.85-32.32,55.07-9.04-15.62,23.28-39.45-40.83-69.96-40.6,70.51,72.07,124.91-.25.43h81.88l-59.95-103.64,9.04-15.62,70.02,121.05,7.67,12.67h-117.03s-.49.01-.49.01l-7.01-12.17-1.4-2.31h.07l-72.44-125.71,57.59-101.03.39-.69s.42.66.44.69Z"/>
      <polygon class="st0" points="477.42 248.17 494.26 248.17 512.75 216.21 503.71 200.58 484.56 233.7 402.98 233.7 462.93 130.06 453.89 114.44 376.54 248.16 376.54 248.16 476.19 248.16 477.42 248.17"/>
    </g>
  </g>
  <line class="st3" x1="15.83" y1="284.35" x2="657.7" y2="284.35"/>
  <line class="st4" x1="812.08" y1="284.35" x2="1097.36" y2="284.35"/>
</svg>